Coordinates
version=1
nRows=13
nColumns=22
inDegrees=yes

Units are S.I. units (second, meters, Newtons, ...)
If the header above contains a line with 'inDegrees', this indicates whether rotational values are in degrees (yes) or radians (no).

endheader
time	pelvis_tilt	pelvis_list	pelvis_rotation	pelvis_tx	pelvis_ty	pelvis_tz	hip_flexion_r	hip_adduction_r	hip_rotation_r	knee_angle_r	ankle_angle_r	subtalar_angle_r	hip_flexion_l	hip_adduction_l	hip_rotation_l	knee_angle_l	ankle_angle_l	subtalar_angle_l	lumbar_extension	lumbar_bending	lumbar_rotation
      1.43000000	     -5.25466866	     -5.87317746	      0.36642611	     -1.00003049	      0.96558861	     -0.21061396	      2.60641216	      9.04273233	     -2.01299093	    -14.33977000	     14.88239061	     -0.57329486	     22.28257868	     -8.04487358	      5.10732148	    -35.91230671	     16.27153168	      5.75090692	     -1.10643282	      7.26128369	     -5.12594346
      1.44000000	     -5.24154350	     -5.76740618	      0.23967143	     -0.99655977	      0.96527095	     -0.21007957	      2.35222265	      8.96466526	     -1.90067302	    -14.33164128	     15.03585635	     -0.53276680	     22.84818450	     -7.97700882	      4.90974266	    -35.80725366	     15.94394987	      5.39148718	     -1.14001862	      7.14104294	     -4.82895632
      1.45000000	     -5.19720770	     -5.69942317	      0.17294429	     -0.99300092	      0.96492207	     -0.20966291	      2.06020427	      8.92010611	     -1.84952378	    -14.31991050	     15.20818287	     -0.49478174	     23.40525015	     -7.93220187	      4.77352295	    -35.65719949	     15.53135808	      4.82452004	     -1.20601003	      7.06550670	     -4.61387854
      1.46000000	     -5.17994351	     -5.61573355	      0.08812737	     -0.98936012	      0.96452385	     -0.20926987	      1.78966165	      8.85769664	     -1.76233049	    -14.30664223	     15.35018297	     -0.49219505	     23.97559030	     -7.88472632	      4.61560342	    -35.43051467	     15.07793395	      4.49066410	     -1.24447372	      6.97028794	     -4.36933907
      1.47000000	     -5.13964653	     -5.55737301	      0.05164429	     -0.98567303	      0.96407915	     -0.20898843	      1.49972715	      8.81635918	     -1.72740162	    -14.30641972	     15.52637051	     -0.48432315	     24.54493223	     -7.84150081	      4.52512705	    -35.17257736	     14.56029329	      3.91456858	     -1.31341272	      6.90181119	     -4.18165383
      1.48000000	     -5.11413587	     -5.49370639	      0.02738043	     -0.98190279	      0.96359415	     -0.20879598	      1.21627537	      8.76398794	     -1.70188985	    -14.29878923	     15.68756416	     -0.48255271	     25.11492390	     -7.78411936	      4.46312354	    -34.84074265	     14.00526979	      3.43969478	     -1.36565490	      6.82972687	     -4.00914506
      1.49000000	     -5.10222909	     -5.41231318	      0.02799557	     -0.97807754	      0.96306306	     -0.20872364	      0.94351363	      8.68596753	     -1.69764043	    -14.28937537	     15.83445070	     -0.48572363	     25.69337896	     -7.68901650	      4.44637350	    -34.45209497	     13.41949200	      3.06329772	     -1.40555315	      6.73955431	     -3.85777688
      1.50000000	     -5.08286579	     -5.35947882	      0.05101987	     -0.97419780	      0.96249155	     -0.20871739	      0.67135235	      8.63603186	     -1.71740999	    -14.30272510	     16.02616268	     -0.48369263	     26.25473774	     -7.61009379	      4.48573473	    -34.00065302	     12.79983889	      2.55653781	     -1.45811781	      6.67841147	     -3.75028882
      1.51000000	     -5.07355982	     -5.28569231	      0.09194214	     -0.97024284	      0.96188597	     -0.20882802	      0.40539390	      8.55714296	     -1.75280237	    -14.31532413	     16.20528703	     -0.48377447	     26.80811561	     -7.49226862	      4.56731579	    -33.48860074	     12.16827289	      2.19277875	     -1.50014617	      6.59600370	     -3.64925308
      1.52000000	     -5.06906700	     -5.21065458	      0.14332501	     -0.96619942	      0.96125205	     -0.20901913	      0.13420162	      8.47378999	     -1.78727634	    -14.31746469	     16.36532255	     -0.47453567	     27.34590759	     -7.36503745	      4.67994028	    -32.91882747	     11.51049568	      1.82132711	     -1.53704032	      6.51203716	     -3.56274249
      1.53000000	     -5.06699349	     -5.10552981	      0.20386614	     -0.96206419	      0.96059479	     -0.20930475	     -0.12579919	      8.35209492	     -1.84776960	    -14.34502833	     16.54848384	     -0.48917884	     27.85119887	     -7.19628651	      4.83026017	    -32.28034016	     10.86043963	      1.68023237	     -1.57219770	      6.39423904	     -3.47314443
      1.54000000	     -5.06026584	     -5.00439869	      0.25661592	     -0.95784255	      0.95991421	     -0.20964162	     -0.38227851	      8.23221442	     -1.88685628	    -14.40107018	     16.75763775	     -0.48878300	     28.31630238	     -7.03490823	      4.99925507	    -31.57555355	     10.17446390	      1.35223031	     -1.61625342	      6.28050453	     -3.39267197
      1.55000000	     -5.06161470	     -4.88158880	      0.31161344	     -0.95347761	      0.95920902	     -0.21005155	     -0.65123561	      8.08457361	     -1.93770223	    -14.43218191	     16.93476177	     -0.50549526	     28.75693626	     -6.85296122	      5.18149602	    -30.82265419	      9.51009610	      1.23247572	     -1.64545459	      6.13950050	     -3.28290347
